<svg xmlns="http://www.w3.org/2000/svg" width="38" height="38" viewBox="0 0 38 38"><defs><style>.a{fill:#3d5a98;}.b{fill:#fff;}</style></defs><path class="a" d="M35.922,38A2.065,2.065,0,0,0,38,35.922V2.078A2.065,2.065,0,0,0,35.922,0H2.078A2.1,2.1,0,0,0,0,2.078V35.862a2.065,2.065,0,0,0,2.078,2.078H35.922Z"/><path class="b" d="M36.725,41.9V27.175h4.928l.712-5.759h-5.7V17.734c0-1.663.475-2.791,2.85-2.791h3.028V9.837A42.544,42.544,0,0,0,38.091,9.6c-4.394,0-7.362,2.672-7.362,7.6v4.216H25.8v5.759h4.928V41.9Z" transform="translate(-10.481 -3.9)"/></svg>