<svg xmlns="http://www.w3.org/2000/svg" width="40.525" height="40.697" viewBox="0 0 40.525 40.697"><defs><style>.a{fill:#fff;}.b{fill:#bd081c;}</style></defs><g transform="translate(-1997.984 -1485)"><ellipse class="a" cx="19.5" cy="20" rx="19.5" ry="20" transform="translate(1998.654 1485.697)"/><g transform="translate(1997.984 1485)"><g transform="translate(0 0)"><path class="b" d="M25.562,5.4a20.261,20.261,0,0,0-7.393,39.125,19.629,19.629,0,0,1,.061-5.811c.365-1.582,2.373-10.07,2.373-10.07a7.318,7.318,0,0,1-.608-3.012c0-2.829,1.643-4.929,3.651-4.929,1.734,0,2.556,1.308,2.556,2.86,0,1.734-1.1,4.351-1.673,6.754a2.932,2.932,0,0,0,3.012,3.651c3.59,0,6.359-3.8,6.359-9.279,0-4.837-3.5-8.245-8.458-8.245a8.785,8.785,0,0,0-9.158,8.793A7.778,7.778,0,0,0,17.8,29.861a.706.706,0,0,1,.152.578c-.152.639-.487,2.008-.548,2.282-.091.365-.3.456-.669.274-2.525-1.187-4.107-4.868-4.107-7.849,0-6.389,4.655-12.261,13.387-12.261,7.028,0,12.474,5.02,12.474,11.683,0,6.967-4.411,12.6-10.5,12.6a5.5,5.5,0,0,1-4.655-2.312s-1,3.864-1.247,4.807a23.258,23.258,0,0,1-2.525,5.324A20.247,20.247,0,1,0,25.562,5.4Z" transform="translate(-5.3 -5.4)"/></g></g></g></svg>