<svg xmlns="http://www.w3.org/2000/svg" width="48" height="48" viewBox="0 0 48 48"><defs><style>.a{fill:#858585;opacity:0.31;}.b{fill:#fff;}</style></defs><g transform="translate(-1712 -17)"><g transform="translate(-14 -4)"><rect class="a" width="48" height="48" rx="8" transform="translate(1726 21)"/></g><g transform="translate(1611.773 -31.162)"><path class="b" d="M179.722,199.285a3.322,3.322,0,1,0-3.322-3.322A3.33,3.33,0,0,0,179.722,199.285Zm0-4.069a.709.709,0,0,1,.709.709.709.709,0,1,1-1.419,0A.709.709,0,0,1,179.722,195.216Z" transform="translate(-63.764 -124.914)"/><path class="b" d="M301.242,199.285a3.322,3.322,0,1,0-3.322-3.322A3.33,3.33,0,0,0,301.242,199.285Zm0-4.069a.709.709,0,0,1,.709.709.709.709,0,1,1-.709-.709Z" transform="translate(-177.183 -124.914)"/><path class="b" d="M423.322,199.285A3.322,3.322,0,1,0,420,195.962,3.33,3.33,0,0,0,423.322,199.285Zm0-4.069a.709.709,0,0,1,.709.709.709.709,0,0,1-1.419,0A.709.709,0,0,1,423.322,195.216Z" transform="translate(-291.125 -124.914)"/><path class="b" d="M112.375,83.367h4.816l3.621,4.256a1.7,1.7,0,0,0,2.762,0l3.621-4.256h8.885a4.318,4.318,0,0,0,4.293-4.293V63.1A4.318,4.318,0,0,0,136.08,58.8H112.375a4.318,4.318,0,0,0-4.293,4.293V79.074a4.293,4.293,0,0,0,4.293,4.293ZM110.7,63.1a1.673,1.673,0,0,1,1.68-1.68H136.08a1.673,1.673,0,0,1,1.68,1.68V79.074a1.673,1.673,0,0,1-1.68,1.68H126.6a1.333,1.333,0,0,0-1.008.448l-3.4,3.995L118.8,81.2a1.278,1.278,0,0,0-1.008-.448h-5.413a1.673,1.673,0,0,1-1.68-1.68Z"/></g></g></svg>