<svg xmlns="http://www.w3.org/2000/svg" width="24.028" height="24.028" viewBox="0 0 24.028 24.028"><g transform="translate(-1004.892 -71.892)"><g transform="translate(1004.892 71.892)"><path d="M115.615,33.6a12.074,12.074,0,0,0-1.758.128.546.546,0,0,0-.444.392l-.7,2.423a9.507,9.507,0,0,0-1.459.6l-2.21-1.212a.546.546,0,0,0-.589.034,11.755,11.755,0,0,0-2.492,2.492.546.546,0,0,0-.034.589l1.212,2.21a9.5,9.5,0,0,0-.6,1.459l-2.423.7a.546.546,0,0,0-.392.444,12.134,12.134,0,0,0,0,3.516.546.546,0,0,0,.392.444l2.423.7a9.507,9.507,0,0,0,.6,1.459l-1.212,2.21a.546.546,0,0,0,.034.589,11.754,11.754,0,0,0,2.492,2.492.546.546,0,0,0,.589.034l2.21-1.212a9.5,9.5,0,0,0,1.459.6l.7,2.423a.546.546,0,0,0,.444.392,12.134,12.134,0,0,0,3.516,0,.546.546,0,0,0,.444-.392l.7-2.423a9.507,9.507,0,0,0,1.459-.6l2.21,1.212a.546.546,0,0,0,.589-.034,11.752,11.752,0,0,0,2.492-2.492.546.546,0,0,0,.034-.589l-1.212-2.21a9.506,9.506,0,0,0,.6-1.459l2.423-.7a.546.546,0,0,0,.392-.444,12.134,12.134,0,0,0,0-3.516.546.546,0,0,0-.392-.444l-2.423-.7a9.508,9.508,0,0,0-.6-1.459l1.212-2.21a.546.546,0,0,0-.034-.589,11.752,11.752,0,0,0-2.492-2.492.546.546,0,0,0-.589-.034l-2.21,1.212a9.5,9.5,0,0,0-1.459-.6l-.7-2.423a.546.546,0,0,0-.444-.392A12.073,12.073,0,0,0,115.615,33.6Zm0,1.092a10.912,10.912,0,0,1,1.263.094l.674,2.3a.546.546,0,0,0,.375.375,8.435,8.435,0,0,1,1.817.759.546.546,0,0,0,.529,0l2.107-1.16a8.832,8.832,0,0,1,1.784,1.784L123,40.957a.546.546,0,0,0,0,.529,8.436,8.436,0,0,1,.759,1.817.546.546,0,0,0,.375.375l2.3.674a8.539,8.539,0,0,1,0,2.525l-2.3.674a.546.546,0,0,0-.375.375A8.435,8.435,0,0,1,123,49.746a.546.546,0,0,0,0,.529l1.161,2.107a8.832,8.832,0,0,1-1.784,1.784l-2.107-1.16a.546.546,0,0,0-.529,0,8.435,8.435,0,0,1-1.817.759.546.546,0,0,0-.375.375l-.674,2.3a8.537,8.537,0,0,1-2.525,0l-.674-2.3a.546.546,0,0,0-.375-.375,8.435,8.435,0,0,1-1.817-.759.546.546,0,0,0-.529,0l-2.107,1.16a8.831,8.831,0,0,1-1.784-1.784l1.16-2.107a.546.546,0,0,0,0-.529,8.436,8.436,0,0,1-.759-1.817.546.546,0,0,0-.375-.375l-2.3-.674a8.535,8.535,0,0,1,0-2.525l2.3-.674a.546.546,0,0,0,.375-.375,8.435,8.435,0,0,1,.759-1.817.546.546,0,0,0,0-.529l-1.16-2.107a8.832,8.832,0,0,1,1.784-1.784l2.107,1.16a.546.546,0,0,0,.529,0,8.436,8.436,0,0,1,1.817-.759.546.546,0,0,0,.375-.375l.674-2.3A10.912,10.912,0,0,1,115.615,34.694Zm0,5.461a5.461,5.461,0,1,0,5.461,5.461A5.469,5.469,0,0,0,115.615,40.155Zm0,1.092a4.369,4.369,0,1,1-4.369,4.369A4.361,4.361,0,0,1,115.615,41.247Z" transform="translate(-103.601 -33.602)"/></g></g></svg>