<svg xmlns="http://www.w3.org/2000/svg" xmlns:xlink="http://www.w3.org/1999/xlink" width="40.06" height="40.049" viewBox="0 0 40.06 40.049"><defs><style>.a{fill:url(#a);}.b{fill:url(#b);}.c{fill:#fff;}</style><radialGradient id="a" cx="0.266" cy="1.077" r="0.991" gradientTransform="translate(-2.918 5.666) rotate(-90) scale(1 0.93)" gradientUnits="objectBoundingBox"><stop offset="0" stop-color="#fd5"/><stop offset="0.1" stop-color="#fd5"/><stop offset="0.5" stop-color="#ff543e"/><stop offset="1" stop-color="#c837ab"/></radialGradient><radialGradient id="b" cx="-0.168" cy="0.072" r="0.443" gradientTransform="matrix(0.196, 0.981, -4.042, 0.809, 15.634, -0.42)" gradientUnits="objectBoundingBox"><stop offset="0" stop-color="#3771c8"/><stop offset="0.128" stop-color="#3771c8"/><stop offset="1" stop-color="#60f" stop-opacity="0"/></radialGradient></defs><g transform="translate(-1.001 -1)"><path class="a" d="M20.033,0C11.671,0,9.225.009,8.75.048A9.937,9.937,0,0,0,4.8,1.04,8,8,0,0,0,2.5,2.725,8.6,8.6,0,0,0,.181,7.6C.045,8.533.006,8.724,0,13.508c0,1.595,0,3.693,0,6.509,0,8.356.009,10.8.049,11.273A10.06,10.06,0,0,0,1,35.16a8.438,8.438,0,0,0,5.469,4.467,14.211,14.211,0,0,0,2.908.385c.5.022,5.552.037,10.611.037s10.118-.006,10.6-.031a13.684,13.684,0,0,0,3.013-.394,8.387,8.387,0,0,0,5.469-4.477,9.9,9.9,0,0,0,.944-3.795c.027-.345.039-5.847.039-11.341S40.044,9.025,40.017,8.68a9.784,9.784,0,0,0-.963-3.833A7.939,7.939,0,0,0,37.339,2.5,8.648,8.648,0,0,0,32.462.184C31.527.048,31.34.008,26.552,0Z" transform="translate(1.004 1)"/><path class="b" d="M20.033,0C11.671,0,9.225.009,8.75.048A9.937,9.937,0,0,0,4.8,1.04,8,8,0,0,0,2.5,2.725,8.6,8.6,0,0,0,.181,7.6C.045,8.533.006,8.724,0,13.508c0,1.595,0,3.693,0,6.509,0,8.356.009,10.8.049,11.273A10.06,10.06,0,0,0,1,35.16a8.438,8.438,0,0,0,5.469,4.467,14.211,14.211,0,0,0,2.908.385c.5.022,5.552.037,10.611.037s10.118-.006,10.6-.031a13.684,13.684,0,0,0,3.013-.394,8.387,8.387,0,0,0,5.469-4.477,9.9,9.9,0,0,0,.944-3.795c.027-.345.039-5.847.039-11.341S40.044,9.025,40.017,8.68a9.784,9.784,0,0,0-.963-3.833A7.939,7.939,0,0,0,37.339,2.5,8.648,8.648,0,0,0,32.462.184C31.527.048,31.34.008,26.552,0Z" transform="translate(1.004 1)"/><path class="c" d="M32.79,18c-4.016,0-4.52.018-6.1.089a10.853,10.853,0,0,0-3.589.687A7.565,7.565,0,0,0,18.776,23.1a10.8,10.8,0,0,0-.687,3.589c-.071,1.577-.089,2.082-.089,6.1s.018,4.519.089,6.1a10.868,10.868,0,0,0,.687,3.589A7.568,7.568,0,0,0,23.1,46.8a10.862,10.862,0,0,0,3.59.687c1.577.072,2.081.089,6.1.089s4.519-.018,6.1-.089a10.868,10.868,0,0,0,3.591-.687A7.577,7.577,0,0,0,46.8,42.475a10.962,10.962,0,0,0,.687-3.589c.071-1.577.089-2.08.089-6.1s-.018-4.52-.089-6.1A10.956,10.956,0,0,0,46.8,23.1a7.566,7.566,0,0,0-4.326-4.325,10.886,10.886,0,0,0-3.592-.687c-1.577-.072-2.08-.089-6.1-.089Zm-1.327,2.665H32.79c3.949,0,4.417.014,5.976.085a8.188,8.188,0,0,1,2.746.509,4.9,4.9,0,0,1,2.806,2.807,8.171,8.171,0,0,1,.509,2.745c.071,1.559.086,2.027.086,5.974s-.015,4.415-.086,5.974a8.179,8.179,0,0,1-.509,2.745,4.9,4.9,0,0,1-2.806,2.8,8.158,8.158,0,0,1-2.746.51c-1.559.071-2.027.086-5.976.086s-4.417-.015-5.976-.086a8.2,8.2,0,0,1-2.746-.51A4.9,4.9,0,0,1,21.261,41.5a8.171,8.171,0,0,1-.509-2.745c-.071-1.559-.085-2.027-.085-5.976s.014-4.415.085-5.974a8.188,8.188,0,0,1,.509-2.746,4.9,4.9,0,0,1,2.807-2.807,8.17,8.17,0,0,1,2.746-.51c1.364-.062,1.893-.08,4.649-.083Zm9.221,2.456a1.774,1.774,0,1,0,1.775,1.774,1.774,1.774,0,0,0-1.775-1.774ZM32.79,25.194a7.594,7.594,0,1,0,7.593,7.595,7.595,7.595,0,0,0-7.593-7.595Zm0,2.665a4.93,4.93,0,1,1-4.93,4.93A4.93,4.93,0,0,1,32.79,27.859Z" transform="translate(-11.762 -11.762)"/></g></svg>