<svg xmlns="http://www.w3.org/2000/svg" width="42.777" height="34.764" viewBox="0 0 42.777 34.764"><defs><style>.a{fill:#2aa9e0;}</style></defs><g transform="translate(-282.321 -396.307)"><path class="a" d="M325.1,400.422a17.544,17.544,0,0,1-5.04,1.382,8.8,8.8,0,0,0,3.859-4.855,17.57,17.57,0,0,1-5.573,2.13,8.784,8.784,0,0,0-14.955,8,24.916,24.916,0,0,1-18.089-9.17,8.785,8.785,0,0,0,2.716,11.717,8.742,8.742,0,0,1-3.975-1.1c0,.037,0,.073,0,.11a8.782,8.782,0,0,0,7.04,8.606,8.8,8.8,0,0,1-3.963.15,8.785,8.785,0,0,0,8.2,6.094,17.608,17.608,0,0,1-10.9,3.757,17.857,17.857,0,0,1-2.094-.123,24.84,24.84,0,0,0,13.453,3.943c16.143,0,24.97-13.373,24.97-24.97q0-.571-.025-1.136a17.83,17.83,0,0,0,4.379-4.543Z"/></g></svg>