<svg xmlns="http://www.w3.org/2000/svg" xmlns:xlink="http://www.w3.org/1999/xlink" width="359" height="195" viewBox="0 0 359 195"><defs><style>.a{fill:#ed135d;}.b{opacity:0.14;clip-path:url(#a);}</style><clipPath id="a"><rect class="a" width="359" height="195" rx="20" transform="translate(1206 136)"/></clipPath></defs><g class="b" transform="translate(-1206 -136)"><g transform="translate(497.197 -1153.737)"><g transform="translate(708.397 1260)"><path class="a" d="M280.749,105.258,240.194,66.383,219.7,86.026,178.867,46.879,158.448,66.454,117.638,27.331,97.555,46.581l-.721-.691,20.8-19.943,40.811,39.123L178.866,45.5,219.7,84.643,240.194,65l41.278,39.567Z" transform="translate(-96.834 -25.634)"/><path class="a" d="M280.8,160.485,240.247,121.61l-20.491,19.644-40.836-39.148L158.5,121.681,117.69,82.558,97.609,101.807l-.721-.691,20.8-19.943L158.5,120.3l20.418-19.574,40.836,39.148,20.491-19.644,41.274,39.567Z" transform="translate(-96.869 -61.55)"/><path class="a" d="M280.792,217.188l-40.556-38.875-20.49,19.645L178.911,158.81l-20.42,19.575L117.68,139.262,97.6,158.514l-.721-.694,20.8-19.943L158.491,177l20.42-19.575,40.836,39.148,20.49-19.645L281.514,216.5Z" transform="translate(-96.862 -98.427)"/><path class="a" d="M280.842,272.406l-40.555-38.871L219.8,253.177,178.961,214.03,158.541,233.6,117.73,194.48,97.649,213.732l-.721-.693,20.8-19.944,40.811,39.123,20.42-19.575L219.8,251.791l20.49-19.641,41.278,39.564Z" transform="translate(-96.894 -134.338)"/><path class="a" d="M280.789,329.118l-40.555-38.875-20.491,19.644-40.836-39.148-20.42,19.575-40.811-39.123L97.6,270.443l-.721-.692,20.8-19.943,40.811,39.123,20.42-19.574L219.743,308.5l20.491-19.644,41.278,39.567Z" transform="translate(-96.86 -171.22)"/><path class="a" d="M280.842,384.342l-40.555-38.875L219.8,365.11l-40.836-39.148-20.418,19.574L117.73,306.413,97.649,325.665l-.721-.693,20.8-19.943,40.811,39.123,20.418-19.573L219.8,363.724l20.491-19.641,41.274,39.564Z" transform="translate(-96.894 -207.133)"/><path class="a" d="M219.783,421.811l-40.836-39.148-20.42,19.574-40.811-39.123L97.637,382.366l-.722-.693,20.8-19.944,40.811,39.123,20.42-19.575,40.836,39.148,20.491-19.644,20.659,19.806-.721.693-19.938-19.114Z" transform="translate(-96.885 -244.007)"/><path class="a" d="M98.157,494.343l-.724-.694,20.853-19.988,20.5,19.645-.721.694-19.776-18.954Z" transform="translate(-97.215 -316.802)"/><path class="a" d="M158.568,457.46l-40.811-39.123-20.081,19.25-.722-.691,20.8-19.943,40.811,39.123,20.42-19.577,21.062,20.191-.721.691-20.342-19.5Z" transform="translate(-96.911 -279.922)"/><path class="a" d="M352.006,84.912,311.451,46.038,290.96,65.68,250.123,26.532,229.7,46.107,208.952,26.215l.721-.692,20.032,19.2,20.418-19.575L290.96,64.3l20.491-19.644L352.725,84.22Z" transform="translate(-168.058 -25.114)"/><path class="a" d="M458.249,65.959,417.694,27.084,397.2,46.727,376.247,26.634l.721-.692,20.235,19.4L417.694,25.7l41.278,39.567Z" transform="translate(-274.334 -25.472)"/><path class="a" d="M544.762,25.051l20.833,19.971-.722.692L544.039,25.743Z" transform="translate(-380.926 -25.051)"/></g><g transform="translate(890.767 1260)"><path class="a" d="M280.749,105.258,240.194,66.383,219.7,86.026,178.867,46.879,158.448,66.454,117.638,27.331,97.555,46.581l-.721-.691,20.8-19.943,40.811,39.123L178.866,45.5,219.7,84.643,240.194,65l41.278,39.567Z" transform="translate(-96.834 -25.634)"/><path class="a" d="M280.8,160.485,240.247,121.61l-20.491,19.644-40.836-39.148L158.5,121.681,117.69,82.558,97.609,101.807l-.721-.691,20.8-19.943L158.5,120.3l20.418-19.574,40.836,39.148,20.491-19.644,41.274,39.567Z" transform="translate(-96.869 -61.55)"/><path class="a" d="M280.792,217.188l-40.556-38.875-20.49,19.645L178.911,158.81l-20.42,19.575L117.68,139.262,97.6,158.514l-.721-.694,20.8-19.943L158.491,177l20.42-19.575,40.836,39.148,20.49-19.645L281.514,216.5Z" transform="translate(-96.862 -98.427)"/><path class="a" d="M280.842,272.406l-40.555-38.871L219.8,253.177,178.961,214.03,158.541,233.6,117.73,194.48,97.649,213.732l-.721-.693,20.8-19.944,40.811,39.123,20.42-19.575L219.8,251.791l20.49-19.641,41.278,39.564Z" transform="translate(-96.894 -134.338)"/><path class="a" d="M280.789,329.118l-40.555-38.875-20.491,19.644-40.836-39.148-20.42,19.575-40.811-39.123L97.6,270.443l-.721-.692,20.8-19.943,40.811,39.123,20.42-19.574L219.743,308.5l20.491-19.644,41.278,39.567Z" transform="translate(-96.86 -171.22)"/><path class="a" d="M280.842,384.342l-40.555-38.875L219.8,365.11l-40.836-39.148-20.418,19.574L117.73,306.413,97.649,325.665l-.721-.693,20.8-19.943,40.811,39.123,20.418-19.573L219.8,363.724l20.491-19.641,41.274,39.564Z" transform="translate(-96.894 -207.133)"/><path class="a" d="M219.783,421.811l-40.836-39.148-20.42,19.574-40.811-39.123L97.637,382.366l-.722-.693,20.8-19.944,40.811,39.123,20.42-19.575,40.836,39.148,20.491-19.644,20.659,19.806-.721.693-19.938-19.114Z" transform="translate(-96.885 -244.007)"/><path class="a" d="M98.157,494.343l-.724-.694,20.853-19.988,20.5,19.645-.721.694-19.776-18.954Z" transform="translate(-97.215 -316.802)"/><path class="a" d="M158.568,457.46l-40.811-39.123-20.081,19.25-.722-.691,20.8-19.943,40.811,39.123,20.42-19.577,21.062,20.191-.721.691-20.342-19.5Z" transform="translate(-96.911 -279.922)"/><path class="a" d="M352.006,84.912,311.451,46.038,290.96,65.68,250.123,26.532,229.7,46.107,208.952,26.215l.721-.692,20.032,19.2,20.418-19.575L290.96,64.3l20.491-19.644L352.725,84.22Z" transform="translate(-168.058 -25.114)"/><path class="a" d="M458.249,65.959,417.694,27.084,397.2,46.727,376.247,26.634l.721-.692,20.235,19.4L417.694,25.7l41.278,39.567Z" transform="translate(-274.334 -25.472)"/><path class="a" d="M544.762,25.051l20.833,19.971-.722.692L544.039,25.743Z" transform="translate(-380.926 -25.051)"/></g><g transform="translate(889.673 1435.178)"><path class="a" d="M280.749,105.258,240.194,66.383,219.7,86.026,178.867,46.879,158.448,66.454,117.638,27.331,97.555,46.581l-.721-.691,20.8-19.943,40.811,39.123L178.866,45.5,219.7,84.643,240.194,65l41.278,39.567Z" transform="translate(-96.834 -25.634)"/><path class="a" d="M280.8,160.485,240.247,121.61l-20.491,19.644-40.836-39.148L158.5,121.681,117.69,82.558,97.609,101.807l-.721-.691,20.8-19.943L158.5,120.3l20.418-19.574,40.836,39.148,20.491-19.644,41.274,39.567Z" transform="translate(-96.869 -61.55)"/><path class="a" d="M280.792,217.188l-40.556-38.875-20.49,19.645L178.911,158.81l-20.42,19.575L117.68,139.262,97.6,158.514l-.721-.694,20.8-19.943L158.491,177l20.42-19.575,40.836,39.148,20.49-19.645L281.514,216.5Z" transform="translate(-96.862 -98.427)"/><path class="a" d="M280.842,272.406l-40.555-38.871L219.8,253.177,178.961,214.03,158.541,233.6,117.73,194.48,97.649,213.732l-.721-.693,20.8-19.944,40.811,39.123,20.42-19.575L219.8,251.791l20.49-19.641,41.278,39.564Z" transform="translate(-96.894 -134.338)"/><path class="a" d="M280.789,329.118l-40.555-38.875-20.491,19.644-40.836-39.148-20.42,19.575-40.811-39.123L97.6,270.443l-.721-.692,20.8-19.943,40.811,39.123,20.42-19.574L219.743,308.5l20.491-19.644,41.278,39.567Z" transform="translate(-96.86 -171.22)"/><path class="a" d="M280.842,384.342l-40.555-38.875L219.8,365.11l-40.836-39.148-20.418,19.574L117.73,306.413,97.649,325.665l-.721-.693,20.8-19.943,40.811,39.123,20.418-19.573L219.8,363.724l20.491-19.641,41.274,39.564Z" transform="translate(-96.894 -207.133)"/><path class="a" d="M219.783,421.811l-40.836-39.148-20.42,19.574-40.811-39.123L97.637,382.366l-.722-.693,20.8-19.944,40.811,39.123,20.42-19.575,40.836,39.148,20.491-19.644,20.659,19.806-.721.693-19.938-19.114Z" transform="translate(-96.885 -244.007)"/><path class="a" d="M98.157,494.343l-.724-.694,20.853-19.988,20.5,19.645-.721.694-19.776-18.954Z" transform="translate(-97.215 -316.802)"/><path class="a" d="M158.568,457.46l-40.811-39.123-20.081,19.25-.722-.691,20.8-19.943,40.811,39.123,20.42-19.577,21.062,20.191-.721.691-20.342-19.5Z" transform="translate(-96.911 -279.922)"/><path class="a" d="M352.006,84.912,311.451,46.038,290.96,65.68,250.123,26.532,229.7,46.107,208.952,26.215l.721-.692,20.032,19.2,20.418-19.575L290.96,64.3l20.491-19.644L352.725,84.22Z" transform="translate(-168.058 -25.114)"/><path class="a" d="M458.249,65.959,417.694,27.084,397.2,46.727,376.247,26.634l.721-.692,20.235,19.4L417.694,25.7l41.278,39.567Z" transform="translate(-274.334 -25.472)"/><path class="a" d="M544.762,25.051l20.833,19.971-.722.692L544.039,25.743Z" transform="translate(-380.926 -25.051)"/></g><g transform="translate(707.303 1435.178)"><path class="a" d="M280.749,105.258,240.194,66.383,219.7,86.026,178.867,46.879,158.448,66.454,117.638,27.331,97.555,46.581l-.721-.691,20.8-19.943,40.811,39.123L178.866,45.5,219.7,84.643,240.194,65l41.278,39.567Z" transform="translate(-96.834 -25.634)"/><path class="a" d="M280.8,160.485,240.247,121.61l-20.491,19.644-40.836-39.148L158.5,121.681,117.69,82.558,97.609,101.807l-.721-.691,20.8-19.943L158.5,120.3l20.418-19.574,40.836,39.148,20.491-19.644,41.274,39.567Z" transform="translate(-96.869 -61.55)"/><path class="a" d="M280.792,217.188l-40.556-38.875-20.49,19.645L178.911,158.81l-20.42,19.575L117.68,139.262,97.6,158.514l-.721-.694,20.8-19.943L158.491,177l20.42-19.575,40.836,39.148,20.49-19.645L281.514,216.5Z" transform="translate(-96.862 -98.427)"/><path class="a" d="M280.842,272.406l-40.555-38.871L219.8,253.177,178.961,214.03,158.541,233.6,117.73,194.48,97.649,213.732l-.721-.693,20.8-19.944,40.811,39.123,20.42-19.575L219.8,251.791l20.49-19.641,41.278,39.564Z" transform="translate(-96.894 -134.338)"/><path class="a" d="M280.789,329.118l-40.555-38.875-20.491,19.644-40.836-39.148-20.42,19.575-40.811-39.123L97.6,270.443l-.721-.692,20.8-19.943,40.811,39.123,20.42-19.574L219.743,308.5l20.491-19.644,41.278,39.567Z" transform="translate(-96.86 -171.22)"/><path class="a" d="M280.842,384.342l-40.555-38.875L219.8,365.11l-40.836-39.148-20.418,19.574L117.73,306.413,97.649,325.665l-.721-.693,20.8-19.943,40.811,39.123,20.418-19.573L219.8,363.724l20.491-19.641,41.274,39.564Z" transform="translate(-96.894 -207.133)"/><path class="a" d="M219.783,421.811l-40.836-39.148-20.42,19.574-40.811-39.123L97.637,382.366l-.722-.693,20.8-19.944,40.811,39.123,20.42-19.575,40.836,39.148,20.491-19.644,20.659,19.806-.721.693-19.938-19.114Z" transform="translate(-96.885 -244.007)"/><path class="a" d="M98.157,494.343l-.724-.694,20.853-19.988,20.5,19.645-.721.694-19.776-18.954Z" transform="translate(-97.215 -316.802)"/><path class="a" d="M158.568,457.46l-40.811-39.123-20.081,19.25-.722-.691,20.8-19.943,40.811,39.123,20.42-19.577,21.062,20.191-.721.691-20.342-19.5Z" transform="translate(-96.911 -279.922)"/><path class="a" d="M352.006,84.912,311.451,46.038,290.96,65.68,250.123,26.532,229.7,46.107,208.952,26.215l.721-.692,20.032,19.2,20.418-19.575L290.96,64.3l20.491-19.644L352.725,84.22Z" transform="translate(-168.058 -25.114)"/><path class="a" d="M458.249,65.959,417.694,27.084,397.2,46.727,376.247,26.634l.721-.692,20.235,19.4L417.694,25.7l41.278,39.567Z" transform="translate(-274.334 -25.472)"/><path class="a" d="M544.762,25.051l20.833,19.971-.722.692L544.039,25.743Z" transform="translate(-380.926 -25.051)"/></g></g></g></svg>