<svg xmlns="http://www.w3.org/2000/svg" width="36.155" height="32.749" viewBox="0 0 36.155 32.749"><defs><style>.a{fill:#818181;}</style></defs><g transform="translate(-176.402 -123.76)"><path class="a" d="M210.343,123.76H178.672a2.27,2.27,0,0,0,0,4.54h31.615a2.277,2.277,0,0,0,2.27-2.27,2.229,2.229,0,0,0-2.214-2.27Z" transform="translate(0 0)"/><path class="a" d="M203.249,263.2H178.672a2.27,2.27,0,1,0,0,4.54h24.577a2.27,2.27,0,1,0,0-4.54Z" transform="translate(0 -125.307)"/><path class="a" d="M203.249,402.08H178.672a2.27,2.27,0,1,0,0,4.54h24.577a2.27,2.27,0,1,0,0-4.54Z" transform="translate(0 -250.111)"/></g></svg>