<svg xmlns="http://www.w3.org/2000/svg" width="69.183" height="29.472" viewBox="0 0 69.183 29.472"><defs><style>.a{fill:#fff;fill-rule:evenodd;}</style></defs><path class="a" d="M135.712,174.74a5.579,5.579,0,0,1,5.561,5.537v.637h27.144a3.689,3.689,0,0,1,3.675,3.675v9.75a3.711,3.711,0,0,1-3.675,3.7H141.273v.612a5.6,5.6,0,0,1-5.561,5.561H108.446a5.576,5.576,0,0,1-5.537-5.561V180.277a5.558,5.558,0,0,1,5.537-5.537ZM127.7,181.8a1.563,1.563,0,0,0-.612.1,1.665,1.665,0,0,0-.539.343,1.454,1.454,0,0,0-.441,1.127v12.2a1.53,1.53,0,0,0,.955,1.47,1.611,1.611,0,0,0,.612.122,1.48,1.48,0,0,0,.588-.122,1.574,1.574,0,0,0,.857-.857,1.615,1.615,0,0,0,.122-.612v-12.2a1.506,1.506,0,0,0-.122-.588,1.536,1.536,0,0,0-.318-.515,1.6,1.6,0,0,0-.515-.343,1.517,1.517,0,0,0-.588-.122Zm-5.585,0a1.53,1.53,0,0,0-1.47.955,1.584,1.584,0,0,0-.122.612v12.2a1.53,1.53,0,0,0,.955,1.47,1.592,1.592,0,0,0,1.225,0,1.484,1.484,0,0,0,.49-.343,1.574,1.574,0,0,0,.343-.515,1.615,1.615,0,0,0,.122-.612v-12.2a1.506,1.506,0,0,0-.122-.588,1.536,1.536,0,0,0-.318-.515,1.6,1.6,0,0,0-.515-.343,1.517,1.517,0,0,0-.588-.122Zm-5.585,0a1.53,1.53,0,0,0-1.47.955,1.584,1.584,0,0,0-.122.612v12.2a1.6,1.6,0,0,0,.122.612,1.574,1.574,0,0,0,.857.857,1.49,1.49,0,0,0,.588.122,1.6,1.6,0,0,0,1.127-.465,1.454,1.454,0,0,0,.441-1.127v-12.2a1.493,1.493,0,0,0-.1-.588,1.6,1.6,0,0,0-.343-.515,1.5,1.5,0,0,0-.49-.343,1.64,1.64,0,0,0-.612-.122Zm51.887,2.254H141.273V194.9h27.144a.554.554,0,0,0,.539-.563v-9.75a.534.534,0,0,0-.539-.539Z" transform="translate(-102.909 -174.74)"/></svg>